<svg xmlns="http://www.w3.org/2000/svg" width="136.777" height="139.706" viewBox="0 0 136.777 139.706">
  <path id="패스_1" data-name="패스 1" d="M202.42,67.754,183.334,39.89a10.074,10.074,0,0,0-8.4-4.39H77.792a10.338,10.338,0,0,0-9.543,14.123l48.668,119.284a10.229,10.229,0,0,0,9.543,6.3h31.491a13.475,13.475,0,0,0,4.58-1.145,9.743,9.743,0,0,0,4.962-5.344l36.072-91.228a10.038,10.038,0,0,0-1.145-9.543Zm-40.652,4.771h0L149.553,108.6l-6.3,18.322-22.33-54.394Z" transform="translate(-67.516 -35.5)" fill="#333"/>
</svg>
