<svg xmlns="http://www.w3.org/2000/svg" width="147.661" height="139.706" viewBox="0 0 147.661 139.706">
  <path id="패스_2" data-name="패스 2" d="M102.794,41.7a10.229,10.229,0,0,0-9.543-6.3H61.76a10.4,10.4,0,0,0-9.543,6.489L5.649,161.173a10.189,10.189,0,0,0,9.543,13.932H79.319a10.338,10.338,0,0,0,9.543-14.123l-6.871-16.8a10.229,10.229,0,0,0-9.543-6.3H58.134L76.647,83.5l35.117,85.312a10.229,10.229,0,0,0,9.543,6.3H142.3a10.338,10.338,0,0,0,9.543-14.123L103.176,41.7ZM57.943,137.889h0L66.15,113.65ZM76.456,83.5Z" transform="translate(-4.916 -35.4)" fill="#333"/>
</svg>
